<?xml version="1.0" encoding="UTF-8"?>
<svg version="1.1" xmlns="http://www.w3.org/2000/svg" width="1080" height="1080">
<path d="M0 0 C38.28 0 76.56 0 116 0 C127.45488029 21.76427256 127.45488029 21.76427256 131 28.9375 C131.40605469 29.753396 131.81210937 30.56929199 132.23046875 31.40991211 C133.90687069 34.77851285 135.57825638 38.14959352 137.25 41.52050781 C141.69769002 50.48190826 146.18478825 59.41269294 150.875 68.25 C157.32885815 80.41744325 163.41454761 92.76807208 169.54101562 105.10253906 C174.59515377 115.27182464 179.65340229 125.43128551 184.98046875 135.4609375 C190.97173363 146.74147722 196.63021157 158.18661578 202.3125 169.625 C204.41037611 173.84754583 206.51102747 178.06869477 208.61328125 182.2890625 C209.08107498 183.2329483 209.54886871 184.17683411 210.03083801 185.14932251 C212.87279487 190.85419806 215.85208613 196.45794226 219 202 C229.45685319 181.37856592 239.419562 160.51601869 249.10424805 139.52246094 C253.26552583 130.52408316 257.5552649 121.59254126 261.88626099 112.67523193 C266.1619419 103.86687244 270.33810557 95.01706881 274.4375 86.125 C279.31917969 75.53808096 284.34449491 65.03081034 289.44967651 54.55041504 C292.89007453 47.48482669 296.2993264 40.40847384 299.59375 33.2734375 C299.88318481 32.64669128 300.17261963 32.01994507 300.4708252 31.37420654 C301.82974158 28.42662063 303.18150976 25.47595741 304.52539062 22.52148438 C308.06656424 14.79656657 311.94957796 7.52221236 316 0 C356.92 0 397.84 0 440 0 C444.78136345 9.56272691 449.55478792 19.11645261 454.1875 28.75 C454.73937988 29.89629883 455.29125977 31.04259766 455.85986328 32.22363281 C460.32141474 41.52116704 464.66269975 50.87163377 468.9831543 60.23535156 C473.36406868 69.70016884 477.89237976 79.08769351 482.45645142 88.46514893 C487.47614529 98.78430868 492.35175023 109.16050601 497.15625 119.58203125 C501.01523526 127.93215828 504.98164964 136.22589795 509 144.5 C515.36067158 157.59963364 521.51806784 170.78589804 527.61816406 184.00878906 C529.50550114 188.09424028 531.40676527 192.17310508 533.3125 196.25 C533.84488281 197.38953125 534.37726562 198.5290625 534.92578125 199.703125 C535.45751953 200.84007812 535.45751953 200.84007812 536 202 C538.29686143 199.10568709 540.0202965 196.19820874 541.66040039 192.89038086 C542.16845718 191.87088852 542.67651398 190.85139618 543.19996643 189.80101013 C543.74370407 188.70007523 544.28744171 187.59914032 544.84765625 186.46484375 C545.72147172 184.70925735 546.59528965 182.95367218 547.46923733 181.19815159 C548.69502097 178.73346523 549.91717552 176.26698719 551.13928223 173.80047607 C553.82864601 168.37356541 556.52418535 162.94973097 559.22265625 157.52734375 C559.80773956 156.35158783 560.39282288 155.17583191 560.99563599 153.96444702 C564.70840277 146.52606517 568.51451704 139.14611709 572.41664124 131.8056488 C577.28548908 122.62502224 581.88161562 113.30837163 586.5 104 C591.50243101 93.9175809 596.51400507 83.84917961 601.796875 73.91015625 C605.87647839 66.22735824 609.79677282 58.47141323 613.671875 50.68359375 C614.24897217 49.52389069 614.82606934 48.36418762 615.4206543 47.16934204 C617.8039608 42.37512843 620.18443254 37.57952189 622.56103516 32.78198242 C624.32283006 29.22620132 626.0911823 25.67369779 627.859375 22.12109375 C628.65175568 20.51614296 628.65175568 20.51614296 629.46014404 18.87876892 C629.96797424 17.85972977 630.47580444 16.84069061 630.99902344 15.79077148 C631.65327301 14.4710862 631.65327301 14.4710862 632.32073975 13.1247406 C632.87489563 12.0935762 633.42905151 11.0624118 634 10 C634.55989718 8.73949892 634.55989718 8.73949892 635.13110542 7.45353317 C638.55070059 0.55187388 638.55070059 0.55187388 642.3629837 -0.89979267 C645.33490411 -1.23471978 648.15677546 -1.23815456 651.14599609 -1.13525391 C652.8151709 -1.13744431 652.8151709 -1.13744431 654.51806641 -1.13967896 C658.18852239 -1.1327232 661.85387137 -1.05500981 665.5234375 -0.9765625 C668.07074205 -0.95790698 670.61808252 -0.94367439 673.16543579 -0.9336853 C679.17988715 -0.89943349 685.19215349 -0.82067172 691.20573008 -0.72019041 C698.05433125 -0.60825129 704.90302167 -0.55339407 711.75231051 -0.50323606 C725.83588361 -0.39882651 739.91784169 -0.22304042 754 0 C753.33299767 3.62748002 752.47930349 6.30296229 750.62109375 9.5 C749.87025513 10.80735107 749.87025513 10.80735107 749.10424805 12.14111328 C748.55422119 13.0845459 748.00419434 14.02797852 747.4375 15 C746.24333779 17.0798951 745.05069927 19.16066558 743.859375 21.2421875 C742.91288086 22.89299316 742.91288086 22.89299316 741.94726562 24.57714844 C738.63741506 30.39511545 735.4128675 36.25996116 732.1875 42.125 C731.51113596 43.35339045 730.83470319 44.58174305 730.15820312 45.81005859 C728.78917902 48.29625571 727.420741 50.78277414 726.05273438 53.26953125 C722.68523767 59.39036235 719.31166489 65.50784298 715.9375 71.625 C715.60616058 72.22580383 715.27482117 72.82660767 714.93344116 73.44561768 C709.52296837 83.25515532 704.08685103 93.05026682 698.64208984 102.84082031 C694.10053166 111.01063041 689.57630883 119.18983932 685.0625 127.375 C684.73105988 127.97600525 684.39961975 128.5770105 684.05813599 129.19622803 C681.70484459 133.4638327 679.35233299 137.731867 677 142 C674.31303617 146.87529573 671.62572608 151.75040014 668.9375 156.625 C668.44021896 157.52674957 668.44021896 157.52674957 667.93289185 158.44671631 C662.5233813 168.25444781 657.08860674 178.04796741 651.64428711 187.83642578 C647.07895064 196.04816846 642.53510499 204.27154287 638 212.5 C630.9253959 225.33588717 623.81614382 238.15224125 616.69067383 250.95996094 C614.45912012 254.97256842 612.2297755 258.98640411 610 263 C563.8 263 517.6 263 470 263 C458.71641333 241.56118532 458.71641333 241.56118532 454.5 233 C451.10674656 226.16055812 447.64585572 219.36676221 444.0625 212.625 C439.7207984 204.45483309 435.57996239 196.19271744 431.46337891 187.90722656 C427.97894898 180.91153761 424.38666356 173.98288144 420.71875 167.08203125 C417.06090113 160.17535815 413.57860059 153.18626236 410.10302734 146.18652344 C406.78255362 139.51754526 403.34567527 132.91950024 399.84863281 126.34179688 C395.86001262 118.80598482 392.06002707 111.17858458 388.28540039 103.53369141 C385.01377597 96.93219074 381.57352728 90.44303511 378 84 C374.66118301 90.3304561 371.32871082 96.66422421 368 103 C367.50822266 103.93553711 367.01644531 104.87107422 366.50976562 105.83496094 C360.77812183 116.74756119 355.12220611 127.68904091 349.64404297 138.73120117 C346.8828015 144.28071185 344.03271493 149.77597579 341.125 155.25 C337.30364766 162.44544478 333.62504021 169.70377746 330 177 C326.00993415 185.03085555 321.92740725 192.99975784 317.71875 200.91796875 C314.06473474 207.81740332 310.58579198 214.79902316 307.11401367 221.79150391 C303.71151907 228.62539414 300.20669044 235.39844604 296.61132812 242.1328125 C292.93976733 249.03051076 289.49992337 256.00015325 286 263 C239.8 263 193.6 263 146 263 C132.39236111 239.18663194 132.39236111 239.18663194 126.5625 228.625 C121.9129458 220.22811516 117.23499556 211.84900573 112.5 203.5 C107.16672625 194.09297102 101.90322837 184.64850588 96.65844727 175.19189453 C90.71367618 164.47527059 84.72776111 153.78199034 78.73388672 143.09277344 C75.8206086 137.89629255 72.91047173 132.69805304 70 127.5 C68.8333482 125.41665834 67.66668154 123.33332501 66.5 121.25 C31.5 58.75 31.5 58.75 29.74829102 55.62182617 C28.58745987 53.54899447 27.42649094 51.47623992 26.26538086 49.40356445 C23.25826713 44.03519693 20.25392178 38.66530664 17.25390625 33.29296875 C16.32674805 31.63394531 16.32674805 31.63394531 15.38085938 29.94140625 C14.21328792 27.85206786 13.04654903 25.76226387 11.88085938 23.671875 C8.45853753 17.55031491 4.93791415 11.50386365 1.30053711 5.50708008 C0 3 0 3 0 0 Z " fill="#505050" transform="translate(163,390)"/>
</svg>
